<?xml version="1.0" encoding="utf-8"?>
<!-- Generator: Adobe Illustrator 17.1.0, SVG Export Plug-In . SVG Version: 6.00 Build 0)  -->
<!DOCTYPE svg PUBLIC "-//W3C//DTD SVG 1.1//EN" "http://www.w3.org/Graphics/SVG/1.1/DTD/svg11.dtd">
<svg version="1.1" id="Lager_1" xmlns="http://www.w3.org/2000/svg" xmlns:xlink="http://www.w3.org/1999/xlink" x="0px" y="0px"
	 viewBox="0 0 291 160" enable-background="new 0 0 291 160" xml:space="preserve">
<g>
	<g>
		<polygon fill="#FFFFFF" points="242.3,141 257.4,158.9 290.1,131 276.3,115.5 		"/>
	</g>
	<g>
		<rect x="1.8" y="6.1" fill="#FFFFFF" width="137.7" height="132.9"/>
	</g>
	<rect x="25.7" y="29.2" fill="#0075BC" width="89.8" height="86.7"/>
	<rect x="36.4" y="53.7" fill="#EF5D56" width="16.2" height="37.8"/>
	<rect x="62.5" y="53.7" fill="#FFCB39" width="16.2" height="37.8"/>
	<rect x="88.7" y="53.7" fill="#3DBEBE" width="16.2" height="37.8"/>
	<path fill="#FFFFFF" d="M290.1,73.1c0,39.8-32.3,72-72,72c-39.8,0-72-32.3-72-72s32.3-72,72-72C257.8,1.1,290.1,33.3,290.1,73.1"/>
	<path fill="#0075BC" d="M249.9,73.1c0,17.6-14.3,31.9-31.9,31.9c-17.6,0-31.9-14.3-31.9-31.9c0-17.6,14.3-31.9,31.9-31.9
		C235.6,41.2,249.9,55.5,249.9,73.1"/>
</g>
</svg>
