<?xml version="1.0" encoding="utf-8"?>
<!-- Generator: Adobe Illustrator 17.1.0, SVG Export Plug-In . SVG Version: 6.00 Build 0)  -->
<!DOCTYPE svg PUBLIC "-//W3C//DTD SVG 1.1//EN" "http://www.w3.org/Graphics/SVG/1.1/DTD/svg11.dtd">
<svg version="1.1" id="Lager_1" xmlns="http://www.w3.org/2000/svg" xmlns:xlink="http://www.w3.org/1999/xlink" x="0px" y="0px"
	 viewBox="0 0 430 575" enable-background="new 0 0 430 575" xml:space="preserve">
<g opacity="5.000000e-002">
	<polygon fill="#FFF1E0" points="184.3,439.4 187.9,419.1 197.9,409.8 200.5,412.5 191.4,421 188.8,435.6 189.9,435.6 368.2,404.2 
		353.7,311.1 379.7,283.7 380.9,273.7 370,235.6 382.9,189.9 410.3,162.6 425.1,162.5 425.2,166.2 411.8,166.3 386.2,191.8 
		373.9,235.6 384.7,273.4 383.2,285.4 357.6,312.3 372.4,407.2 190.2,439.3 	"/>
	<polygon fill="#FFF1E0" points="192.2,7.2 195.9,7 208.3,215.6 214.5,248.3 302.1,242.9 304.6,247.8 313.6,246.6 319.3,234 
		331.5,234 341.7,243.4 356.9,241.3 371.1,234 372.8,237.3 358,245 340.5,247.3 330.1,237.7 321.7,237.7 316.1,250 302.4,251.8 
		299.9,246.8 211.4,252.2 204.5,215.9 	"/>
	
		<rect x="201.3" y="126.3" transform="matrix(-0.9979 6.496824e-002 -6.496824e-002 -0.9979 498.9444 240.0187)" fill="#FFF1E0" width="88.6" height="3.7"/>
	<path fill="#FFF1E0" d="M19.2,23.3l116.1-12.1l30.8-1.6l16-2.2L219,5.2l12.8-8c3.3-1.7,5.9-1.9,8-0.6c2.9,1.9,3,6.2,3,7.4l3,14.6
		l-2.4,37.4l5.4,72l7.3,134l6.9,38.3l-92.1,14.9l-8.8-55.7l1.7-15l-1.2-19.4l-69.1,1.7l-12.8,10.5l-23.2,14.4l-26.2-25.2l0-0.7
		L19.2,23.3z M135.6,14.9L23.2,26.7l11.8,198l23,22.2l20.6-12.8l13.5-11l70.2-1.8l-13.3-207L135.6,14.9z M182.5,11.2l-16.1,2.2
		l-13.6,0.7l14.8,230.4l-1.7,14.8l8.1,51.5l84.6-13.7l-6.3-34.8L245,128.1l-5.4-72.2l0-0.1l2.3-37L239,4.2l0-0.2
		c0.1-1.1-0.2-3.6-1.3-4.3c-0.8-0.5-2.2-0.2-4.1,0.8l-13.4,8.4L182.5,11.2z"/>
	<polygon fill="#FFF1E0" points="10.1,86.2 10.1,82.5 24.7,82.5 154.9,75.7 155.1,79.4 24.8,86.2 	"/>
	<polygon fill="#FFF1E0" points="6.4,43 6.3,39.3 20.9,39.2 151.1,32.5 151.3,36.2 21,43 	"/>
	<polygon fill="#FFF1E0" points="11.6,108.1 11.6,104.3 26.2,104.3 156.4,97.5 156.6,101.2 26.2,108 	"/>
	<polygon fill="#FFF1E0" points="14.6,151.7 14.5,148 29.1,148 159.3,141.2 159.5,144.9 29.2,151.7 	"/>
	<path fill="#FFF1E0" d="M77.8,262.4l2.1-12.4l0.4-0.4c1.2-1.4-0.2-8.2-2.2-13.4l3.5-1.3c1.1,3,4.5,12.6,1.9,16.7l-1.4,8.3
		l38.6,13.1l5.5,25.3l9.6,4.3l33.9-7.2l0.8,3.6l-35.1,7.5l-12.4-5.5l-5.4-25.1L77.8,262.4z"/>
	<path fill="#FFF1E0" d="M42.6,286.2l0-8.8l3.6-11.3l6.2-20.9l3.6,1.1l-6.2,20.9L46.3,278l0,7.6l9.5,28.2l5.8,0l38,11.6l7.9,2.5
		l2.9-4.2l11.6-12.5l0.9,0.1c0.5,0.1,13.4,1.7,13.4,11l0,9.3l7.2,23.7l189.5,186l-33.1,37.3l-17.6-15.1l-39.3-41.7L224,502l-0.1-0.2
		c-9.4-15.9-28.5-6.3-29.3-5.9l-0.4,0.2l-0.5,0l-21.2,0.1l10.1-23.7l1.9-35.2l3.7,0.2l-2,35.8l-8.1,19l15.1-0.1
		c3.2-1.5,23.3-10,33.7,7.3l18.8,19.6L285,561l14.6,12.5l28.3-31.9L140.3,357.4l-7.6-25.2l0-9.9c0-5-6.7-6.7-9.2-7.2l-10.2,10.9
		l-4.2,6.1l-10.6-3.3L61,317.5l-7.9,0L42.6,286.2z"/>
	<polygon fill="#FFF1E0" points="76.6,362.1 183.2,353.3 188.8,348.4 357,320.8 357.6,324.4 190.5,351.9 184.8,356.9 80.6,365.5 
		89.5,489.6 179.6,482.5 179.9,486.2 86,493.6 	"/>
	<polygon fill="#FFF1E0" points="120.6,281.6 213.1,265.7 211.1,250.5 214.8,250 217.3,268.8 121.3,285.3 	"/>
	<polygon fill="#FFF1E0" points="83.6,18.4 87.4,18.2 96.1,165.4 160.4,161.6 160.6,165.3 92.6,169.3 92.5,167.5 	"/>
	<polygon fill="#FFF1E0" points="10.5,169.2 29.9,169.1 94.2,165.5 94.4,169.2 29.9,172.8 10.6,172.9 	"/>
	<polygon fill="#FFF1E0" points="152.7,368.9 156.4,368.6 173,568.3 226.1,563.7 290.3,503.4 257,297.1 261.8,297 268.5,298.2 
		276.2,297.4 282.9,301.9 331,293.5 330.9,286.6 338.2,278.7 348.5,282 354.5,277.8 362.2,273.1 374.2,248.6 377.6,250.3 
		365.1,275.7 356.5,280.9 349.1,286.1 339.4,283 334.7,288 334.7,296.7 282,305.8 275.2,301.2 268.3,301.9 261.5,300.7 261.3,300.7 
		294.3,504.8 227.7,567.3 169.6,572.4 169.4,570.5 	"/>
	<polygon fill="#FFF1E0" points="198.6,85.5 255.7,81.2 257.1,91.9 268.1,90.8 276.1,214.8 308.2,416.7 327.8,536.8 324.2,537.4 
		304.6,417.3 272.4,215.2 264.6,94.9 253.9,96 252.4,85.2 198.9,89.2 	"/>
	<polygon fill="#FFF1E0" points="214.5,7.3 218.2,7.1 232.5,249 269,479.1 265.3,479.7 228.8,249.4 228.8,249.3 	"/>
	<polygon fill="#FFF1E0" points="57.5,415.3 191.2,403.1 191.5,406.8 61.4,418.7 64.2,482.6 68.3,493.4 78.9,489.8 87.7,489.7 
		87.7,493.4 79.5,493.5 66.1,498.1 60.5,483.4 	"/>
	<polygon fill="#FFF1E0" points="14.4,407.3 81.4,402.5 182.6,394.6 182.9,398.4 81.6,406.2 14.7,411 	"/>
	<path fill="#FFF1E0" d="M204.7,186.2l77.5-3.8l0.2,0.1c0.7,0.2,17.9,4,27.4,12.9c2.6,0.2,12.6,1,20.2,1.2l41.8-0.2l0,3.7l-41.9,0.2
		c-9-0.2-21-1.2-21.2-1.2l-0.7-0.1l-0.5-0.5c-8.1-8-23.7-11.9-25.8-12.4l-77,3.8L204.7,186.2z"/>
	<polygon fill="#FFF1E0" points="210.9,375 402.3,343.4 402.4,352.8 394.2,363.5 394.8,371.3 383.8,373.9 394.9,441.2 339.1,507.1 
		300,513.1 299.4,509.4 337.1,503.6 390.9,440.1 379.6,371.1 390.9,368.4 390.4,362.3 398.6,351.6 398.6,347.8 211.6,378.7 	"/>
	
		<rect x="238.5" y="436.9" transform="matrix(-0.984 0.1782 -0.1782 -0.984 703.2764 814.4186)" fill="#FFF1E0" width="153.1" height="3.7"/>
	<path fill="#FFF1E0" d="M346.3,288.1c0-2.6,0.6-4.5,0.7-4.6l3.5,1.2c-0.1,0.2-1.9,5.7,2.1,10.1l0.1,0.2l3,5.2l1.8,11.3l-3.7,0.6
		l-1.7-10.7l-2.4-4.2C347,294.1,346.3,290.7,346.3,288.1z"/>
	<path fill="#FFF1E0" d="M157,59.3c0-6.5,1.1-13.1,3.4-19.8c2.5-7.3,7.9-11,13-14.6c2-1.4,4-2.8,5.9-4.4c3.7-3.2,6.7-7.6,8.3-12.1
		l3.5,1.2c-1.8,5.2-5.2,10.2-9.4,13.8c-2,1.7-4.2,3.2-6.2,4.7c-5.1,3.5-9.5,6.6-11.6,12.8c-3.5,10.2-4.2,19.5-2.1,29.3
		c1.2,5.5,1.1,11.5,1,17.4c0,3-0.1,5.8,0,8.4c0.1,1.5,0.1,3.1,0.1,4.6c0,3,0,5.9,0.5,8.7c0.4,2.2,1.5,3.8,2.8,5.6
		c0.8,1.2,1.7,2.3,2.4,3.8c2.4,4.7,1.9,9.5,1.4,14.2c-0.2,2.2-0.4,4.3-0.4,6.4c0.2,4.3-0.6,8.6-1.3,12.7c-0.8,4.8-1.6,9.3-1.1,13.9
		c1,8.9,4,14.7,9.4,18.2c2.7,1.7,5.4,3.9,6.8,7.7c2.3,6.5,1.1,12.8-3.4,17.7c-3.8,4.2-9.5,6.6-16.1,6.7l-0.1-3.7
		c5.6-0.1,10.4-2.1,13.4-5.5c3.6-4,4.5-8.8,2.7-14c-0.9-2.6-2.7-4.2-5.3-5.8c-6.4-4.1-10-10.8-11.1-20.9c-0.6-5.1,0.3-10.1,1.1-14.9
		c0.7-4.1,1.4-8,1.3-12c-0.1-2.3,0.2-4.6,0.4-6.9c0.5-4.4,0.9-8.5-1-12.2c-0.6-1.2-1.3-2.2-2.1-3.3c-1.4-2-2.9-4.1-3.4-7.1
		c-0.6-3.1-0.5-6.3-0.5-9.3c0-1.5,0-3,0-4.4c-0.1-2.8-0.1-5.7,0-8.6c0.1-5.7,0.2-11.5-0.9-16.6C157.4,66.9,157,63.1,157,59.3z"/>
	<path fill="#FFF1E0" d="M165.1,33.1l3.5-1.4c2.7,6.9,5.2,14,7.7,20.9c1.2,3.4,2.5,7,3.7,10.5c1.5,4.1,3.3,8.2,5.1,12.2
		c2.6,5.7,5.2,11.7,6.9,17.8c1.4,5,1.7,10.3,0.9,15.7c-0.3,2.1-0.7,4.2-1,6.3c-0.9,5.5-1.8,11.3-2.6,16.9c-1.3,10,0.5,19.9,5.3,28.1
		c5.3,9.1,5,17.7-0.6,25.6c-2.9,4-0.3,8.6,3.6,14.6c0.9,1.4,1.8,2.8,2.5,4.1c5.5,10.3,2.3,21.6-0.6,31.7c-0.2,0.9-0.5,1.7-0.7,2.5
		c-1,3.4-1.4,6.9-2,10.6c-0.3,2.2-0.6,4.4-1,6.6c-1,5.1-1,9,0,14.8l18.4,112.6l84.5-14.5l0.6,3.7l-88.2,15.2l-19-116.3
		c-0.9-5.4-1.1-9.8,0-16.1c0.4-2.1,0.7-4.3,1-6.4c0.5-3.6,1-7.4,2.1-11.1c0.2-0.8,0.5-1.7,0.7-2.6c2.8-9.8,5.7-19.9,0.9-28.9
		c-0.6-1.1-1.5-2.4-2.4-3.8c-3.4-5.2-8.2-12.4-3.5-18.8c4.8-6.6,4.9-13.7,0.4-21.6c-5.1-8.9-7.2-19.7-5.7-30.5
		c0.8-5.7,1.7-11.4,2.6-17c0.3-2.1,0.7-4.2,1-6.3c0.8-4.9,0.5-9.7-0.8-14.1c-1.7-5.8-4.3-11.6-6.8-17.3c-1.8-4.1-3.7-8.2-5.2-12.4
		c-1.3-3.5-2.5-7-3.7-10.5C170.3,47.1,167.8,40,165.1,33.1z"/>
	<polygon fill="#FFF1E0" points="65.4,495.9 69.1,495.6 76,575.2 171.2,568.5 171.4,572.2 72.6,579.2 	"/>
	<path fill="#FFF1E0" d="M253.6,81.4c0,0,3.6-0.9,4.3-3.5c0.2-0.8,5-17.5,16.2-20c1-0.5,4.4-1.8,7,0.1c2.3,1.7,3,5,2.2,10.2l0,0.1
		l-3.7,16l4.3,6l-1.3,8.7l7.1,5.1l2,24c0.1,1,2.5,14.3,20.3,14.5l0.2,0l23.4,4.2l0.3,0.2c0.7,0.5,1.5,1,2.3,1.5
		c1.6,1.1,3.3,2.2,4.8,3.1c2.2,1.2,4.6,1.7,7.1,2.2c1.6,0.4,3.3,0.7,5,1.3c5.4,1.8,10.4,4.6,15.3,7.2c5.5,3,10.7,5.9,16.5,7.5
		c1,0.3,2.2,0.5,3.4,0.8c4.3,0.9,9.1,2,12,6.1c3.5,5,2,12.2-1.1,16.4c-3.5,4.7-9.4,6.6-14.6,8.4c-0.9,0.3-1.7,0.6-2.5,0.9l-0.3,0.1
		l-1.7,0l0-3.7l1.1,0c0.7-0.3,1.5-0.5,2.3-0.8c4.7-1.6,10-3.3,12.8-7.1c2.3-3.1,3.4-8.6,1-12c-2-2.9-5.9-3.8-9.7-4.6
		c-1.2-0.3-2.4-0.5-3.6-0.8c-6.2-1.8-11.9-4.8-17.3-7.8c-4.7-2.6-9.6-5.2-14.7-6.9c-1.5-0.5-3-0.8-4.6-1.2c-2.7-0.6-5.5-1.2-8.1-2.6
		c-1.7-0.9-3.5-2.1-5.1-3.2c-0.7-0.4-1.3-0.9-1.9-1.3l-22.4-4.1c-21.2-0.3-23.7-17.6-23.8-17.8l0-0.1l-1.9-22.3l-7.6-5.5l1.4-9.4
		l-4.4-6.2l4.1-17.6c0.8-5-0.3-6.3-0.7-6.5c-0.8-0.6-2.6-0.1-3.3,0.3l-0.2,0.1l-0.3,0.1c-9.2,1.9-13.5,17.2-13.6,17.4
		c-1.2,4.7-6.8,6.1-7,6.2L253.6,81.4z"/>
	<polygon fill="#FFF1E0" points="364.5,272.2 366.4,269 383.3,279.4 391.5,295.4 403.4,345.6 402.3,349.8 398.7,348.8 399.6,345.5 
		388,296.7 380.5,282.1 	"/>
	
		<rect x="210.9" y="408.6" transform="matrix(-0.9855 0.1699 -0.1699 -0.9855 663.0801 764.1719)" fill="#FFF1E0" width="175.8" height="3.7"/>
	
		<rect x="334" y="356.8" transform="matrix(-0.9854 0.1701 -0.1701 -0.9854 734.1053 728.2689)" fill="#FFF1E0" width="3.7" height="77.6"/>
	
		<rect x="59.3" y="419.8" transform="matrix(-0.9971 7.603776e-002 -7.603776e-002 -0.9971 284.5714 832.4711)" fill="#FFF1E0" width="134.4" height="3.7"/>
	<polygon fill="#FFF1E0" points="61.1,455.6 186.3,444.8 194.6,448.5 194.9,448.7 271.4,523.6 311,563.6 308.4,566.2 268.8,526.3 
		192.5,451.6 185.7,448.6 61.4,459.3 	"/>
	<polygon fill="#FFF1E0" points="13.8,418.1 15.3,414.6 60.6,434.8 197.1,424.3 205,416.1 383.6,386.4 384.2,390.1 206.8,419.6 
		198.8,427.9 60,438.6 	"/>
	<path fill="#FFF1E0" d="M12.1,521.2l3.5-0.4l35,24.5l22.7,10c11,5,31.1-0.2,31.3-0.3l0.3-0.1l49.9-5.1l13.5-8.5l14.4-11.3l24.3-2.9
		l31,27.6l-2.5,2.8l-29.7-26.5l-21.6,2.6l-13.8,10.8l-14.3,9.1l-50.7,5.1c-2.1,0.5-21.9,5.4-33.6,0l-23-10.2l-0.1-0.1l-34-23.8
		l-2.2,0.2L12.1,521.2z"/>
	
		<rect x="168.7" y="495.5" transform="matrix(-0.6944 0.7196 -0.7196 -0.6944 725.2836 686.6654)" fill="#FFF1E0" width="96.2" height="3.7"/>
	
		<rect x="139.1" y="280.4" transform="matrix(-0.9969 7.821897e-002 -7.821897e-002 -0.9969 306.4425 626.9814)" fill="#FFF1E0" width="3.7" height="78.1"/>
	<polygon fill="#FFF1E0" points="164.4,245.8 167,243.1 173.6,249.3 180.2,263.4 193,261.9 193.5,265.6 177.9,267.4 170.5,251.6 	
		"/>
	<polygon fill="#FFF1E0" points="139.6,314.4 141.2,311.1 147.4,314.1 151.9,319.1 156.8,319 161.9,322.5 163.1,331.3 170.2,340.6 
		170.3,346.7 173.4,346.7 177.3,389.1 173.5,389.4 170,350.4 166.6,350.4 166.5,341.9 159.6,332.8 158.4,324.6 155.6,322.8 
		150.3,322.8 145.1,317.1 	"/>
	
		<rect x="61" y="440.5" transform="matrix(-0.9971 7.635655e-002 -7.635655e-002 -0.9971 284.6841 873.9311)" fill="#FFF1E0" width="129.3" height="3.7"/>
	<polygon fill="#FFF1E0" points="190.6,438.8 192.5,435.6 205.3,443.3 205.5,443.5 318,555.7 315.4,558.4 203,446.3 	"/>
	<path fill="#FFF1E0" d="M322.8,552.8l1.1-3.6c0.2,0.1,4.3,1.2,7.5-1.8l0.1-0.1l48.6-37.9c0.2-0.1,18.6-15,23.3-24.8l0.1-0.1
		l0.1-0.1c0.1-0.1,8-11.5,7.7-24.5l-6.9-34.4l-14.5,2.9l-0.7-3.7l18.1-3.6l7.7,38.5c0.4,13.7-7.3,25.3-8.3,26.8
		c-5.1,10.6-23.5,25.3-24.3,26l-48.6,37.9C329.1,554.6,323.1,552.8,322.8,552.8z"/>
	
		<rect x="243.8" y="340.4" transform="matrix(-0.9888 0.1493 -0.1493 -0.9888 545.8893 726.4246)" fill="#FFF1E0" width="3.7" height="86.6"/>
	<path fill="#FFF1E0" d="M14.2,483.5c9.2-4.1,24.6,8.9,27.6,11.6l26.5,6.6c2.4,0.4,4.9,0.8,7.5,1.3c12.6,2.4,26.8,5.1,37.2-2.4
		c1.3-0.9,2.4-1.9,3.6-3c2.1-1.9,4.3-3.9,7.2-5.2c4.7-2.1,10.1-2.5,15.4-1.1c2.4,0.6,4.7,1.5,6.9,2.4c4.5,1.7,8.8,3.3,13.4,3.1
		c9.3-0.3,27.6-5.5,27.6-16.4c0,0,0,0,0,0c0-1.2-1.7-3.2-2.7-4.6c-0.5-0.6-1-1.2-1.4-1.8l3.1-2.1c0.3,0.4,0.7,1,1.2,1.6
		c1.6,2,3.6,4.5,3.6,7c0,6.2-4.2,11.5-12.1,15.3c-6.8,3.3-14.5,4.6-19.1,4.8c-5.3,0.2-10.1-1.6-14.8-3.4c-2.3-0.8-4.4-1.6-6.6-2.2
		c-4.5-1.2-9-0.9-12.9,0.9c-2.3,1.1-4.2,2.8-6.3,4.6c-1.2,1.1-2.5,2.2-3.9,3.3c-11.7,8.4-26.8,5.5-40.1,3c-2.6-0.5-5.1-1-7.4-1.3
		l-0.2,0L40,498.4l-0.3-0.3c-4.5-4.1-17.6-14.1-24-11.2L14.2,483.5z"/>
	<polygon fill="#FFF1E0" points="186.5,486.8 189.2,484.1 276.1,571.5 297.9,572.6 297.7,576.3 274.5,575.1 274,574.6 	"/>
	<polygon fill="#FFF1E0" points="212.3,558.1 266,505.2 268.6,507.8 216.3,559.4 217.4,566.2 213.8,566.8 	"/>
	
		<rect x="214.1" y="385.1" transform="matrix(-0.9902 0.1396 -0.1396 -0.9902 486.8559 783.5322)" fill="#FFF1E0" width="3.7" height="47.4"/>
	<polygon fill="#FFF1E0" points="10.7,253.3 11.2,249.6 16.9,250.5 26.1,261.1 33.5,266.4 45.8,279.3 43.1,281.9 31.1,269.3 
		23.6,263.9 15,254 	"/>
	<polygon fill="#FFF1E0" points="11.5,357.8 11.4,354.1 16.8,354.1 22.3,356.1 40.3,335.4 49.7,335.3 52.4,333.1 48.3,323 
		52.9,314.7 56.1,316.5 52.4,323.2 56.8,334.3 51.1,339.1 42,339.1 23.4,360.5 16.1,357.8 	"/>
	<polygon fill="#FFF1E0" points="14.8,573.9 15.8,570.3 42.5,577.8 74.2,575.4 74.4,579.1 42.1,581.5 	"/>
	<polygon fill="#FFF1E0" points="12.6,411.5 13.6,407.9 41.7,415.8 59.3,415.1 59.5,418.8 41.3,419.5 	"/>
	
		<rect x="3.6" y="506.7" transform="matrix(-0.5739 0.819 -0.819 -0.5739 454.2548 780.7621)" fill="#FFF1E0" width="40.9" height="3.7"/>
	<polygon fill="#FFF1E0" points="12.7,323.7 12.7,320 15.2,320 21.2,309.4 26.2,305.8 28.8,292.7 42.3,282.6 44.5,285.6 32.2,294.8 
		29.6,308 24,312 17.4,323.7 	"/>
	
		<rect x="53.7" y="534.4" transform="matrix(-0.9345 0.356 -0.356 -0.9345 311.562 1015.1775)" fill="#FFF1E0" width="17.4" height="3.7"/>
</g>
</svg>
