<?xml version="1.0" encoding="utf-8"?>
<!-- Generator: Adobe Illustrator 17.1.0, SVG Export Plug-In . SVG Version: 6.00 Build 0)  -->
<!DOCTYPE svg PUBLIC "-//W3C//DTD SVG 1.1//EN" "http://www.w3.org/Graphics/SVG/1.1/DTD/svg11.dtd">
<svg version="1.1" id="Lager_1" xmlns="http://www.w3.org/2000/svg" xmlns:xlink="http://www.w3.org/1999/xlink" x="0px" y="0px"
	 viewBox="0 0 200 200" enable-background="new 0 0 200 200" xml:space="preserve">
<g>
	<path fill="#00A1DC" d="M110.3,196.9l-0.1-0.8c2.8-0.3,5.6-0.7,8.3-1.2l0.2,0.8C116,196.2,113.1,196.6,110.3,196.9z M68.7,192.2
		c-2.7-0.9-5.3-1.9-7.9-3.1l0.3-0.8c2.5,1.1,5.2,2.1,7.8,3L68.7,192.2z M157.2,179.1l-0.5-0.7c2.3-1.6,4.5-3.4,6.6-5.2l0.5,0.6
		C161.8,175.8,159.5,177.5,157.2,179.1z M26.9,164.4c-1.9-2.1-3.7-4.3-5.3-6.6l0.7-0.5c1.7,2.2,3.4,4.4,5.3,6.5L26.9,164.4z
		 M189.2,140.5l-0.8-0.4c1.2-2.5,2.2-5.1,3.2-7.8l0.8,0.3C191.5,135.3,190.4,137.9,189.2,140.5z M4.4,119.6c-0.6-2.7-1-5.6-1.4-8.3
		l0.8-0.1c0.3,2.8,0.8,5.5,1.4,8.3L4.4,119.6z M196.2,84.6c-0.4-2.8-1-5.5-1.6-8.2l0.8-0.2c0.7,2.7,1.2,5.5,1.6,8.3L196.2,84.6z
		 M7.8,69.7L7,69.5c0.9-2.7,1.8-5.3,2.9-7.9l0.8,0.3C9.6,64.4,8.7,67.1,7.8,69.7z M176.3,39.1c-1.7-2.2-3.6-4.3-5.5-6.3l0.6-0.6
		c1.9,2,3.8,4.2,5.5,6.4L176.3,39.1z M34.7,27.9l-0.6-0.6c2.1-1.9,4.2-3.7,6.5-5.4l0.5,0.7C38.9,24.2,36.7,26,34.7,27.9z M136.4,9.3
		c-2.6-1-5.2-2-7.9-2.8l0.2-0.8c2.7,0.8,5.4,1.8,8,2.8L136.4,9.3z M78.7,4.8L78.6,4c2.7-0.6,5.5-1.1,8.3-1.5L87,3.3
		C84.2,3.7,81.4,4.2,78.7,4.8z"/>
</g>
</svg>
