<?xml version="1.0" encoding="utf-8"?>
<!-- Generator: Adobe Illustrator 17.1.0, SVG Export Plug-In . SVG Version: 6.00 Build 0)  -->
<!DOCTYPE svg PUBLIC "-//W3C//DTD SVG 1.1//EN" "http://www.w3.org/Graphics/SVG/1.1/DTD/svg11.dtd">
<svg version="1.1" id="Lager_1" xmlns="http://www.w3.org/2000/svg" xmlns:xlink="http://www.w3.org/1999/xlink" x="0px" y="0px"
	 viewBox="0 0 220 420" enable-background="new 0 0 220 420" xml:space="preserve">
<path fill="#597CBE" d="M127.2,391.1c9.6-23.3,3.7-49.6,12.4-73c7-18.7,23.7-30,39.6-40.9c10.4-7.1,23.4-12.2,29.4-23.8
	c2.7-5.2,4.9-13.2,4.1-19.2c-0.5-3.3-2.3-8.6-5.9-15.1c-12.6-23.1-56.5-61.5-59.9-86.3c-3.4-36.9,59-77.2,27.2-115.8
	C142-20,111.4,58.9,99,79.2c-20,36.5-48,69.1-56.5,110.3c0,0-7.6,25.4-8.2,34.2c-2.7,39-24.7,72.4-21.6,111.5
	c1.1,14.1-5.4,31.3,1.6,44.4c9.1,17,34.8,16.5,50.5,23.9C94.4,417.1,112.3,427.3,127.2,391.1z"/>
</svg>
