<?xml version="1.0" encoding="utf-8"?>
<!-- Generator: Adobe Illustrator 17.1.0, SVG Export Plug-In . SVG Version: 6.00 Build 0)  -->
<!DOCTYPE svg PUBLIC "-//W3C//DTD SVG 1.1//EN" "http://www.w3.org/Graphics/SVG/1.1/DTD/svg11.dtd">
<svg version="1.1" id="Lager_1" xmlns="http://www.w3.org/2000/svg" xmlns:xlink="http://www.w3.org/1999/xlink" x="0px" y="0px"
	 viewBox="0 0 180 415" enable-background="new 0 0 180 415" xml:space="preserve">
<path fill="#597CBE" d="M134.6,382.3c3.5-24.9-8.8-48.9-6.2-73.8c2.1-19.8,15.5-35,28.1-49.4c8.3-9.4,19.6-17.7,22.5-30.4
	c1.3-5.8,1.5-14-0.8-19.6c-1.3-3.1-4.4-7.7-9.5-13.2c-17.9-19.2-70-45.5-79.5-68.7C76.8,92.3,127.1,37.8,86.7,8.3
	C46.3-19.4,36.4,64.6,29.5,87.4C19.3,127.7,0.3,166.3,2.3,208.3c0,0-1,26.5,0.6,35.1c7.1,38.5-5.8,76.3,6.9,113.4
	c4.6,13.4,2.6,31.7,12.7,42.6c13.1,14.2,37.8,7.3,54.9,10.5C109.3,415.8,129.2,421.1,134.6,382.3z"/>
</svg>
