<?xml version="1.0" encoding="utf-8"?>
<!-- Generator: Adobe Illustrator 17.1.0, SVG Export Plug-In . SVG Version: 6.00 Build 0)  -->
<!DOCTYPE svg PUBLIC "-//W3C//DTD SVG 1.1//EN" "http://www.w3.org/Graphics/SVG/1.1/DTD/svg11.dtd">
<svg version="1.1" id="Lager_1" xmlns="http://www.w3.org/2000/svg" xmlns:xlink="http://www.w3.org/1999/xlink" x="0px" y="0px"
	 viewBox="0 0 200 410" enable-background="new 0 0 200 410" xml:space="preserve">
<path fill="#EF5D56" d="M190.8,359.2c-2.9-25-20.8-45.1-24.6-69.9c-3-19.7,6.2-37.8,14.8-54.9c5.6-11.2,14.5-22,14.2-35.1
	c-0.2-5.9-2.1-13.9-5.7-18.7c-2.1-2.7-6.2-6.4-12.5-10.4c-22.2-14.1-79.2-26.4-94.2-46.5C62,93,97,27.6,50.5,9.2
	C4.4-7.5,15.9,76.3,15,100.1c0.2,41.6-8.5,83.7,4,123.8c0,0,5.7,25.9,9.4,33.9c16.5,35.4,13.5,75.3,35.2,108
	c7.8,11.8,10.5,30,22.9,38c16.3,10.5,38.4-2.4,55.8-3.6C174.7,397.9,195.3,398.1,190.8,359.2z"/>
</svg>
