<?xml version="1.0" encoding="utf-8"?>
<!-- Generator: Adobe Illustrator 17.1.0, SVG Export Plug-In . SVG Version: 6.00 Build 0)  -->
<!DOCTYPE svg PUBLIC "-//W3C//DTD SVG 1.1//EN" "http://www.w3.org/Graphics/SVG/1.1/DTD/svg11.dtd">
<svg version="1.1" id="Lager_1" xmlns="http://www.w3.org/2000/svg" xmlns:xlink="http://www.w3.org/1999/xlink" x="0px" y="0px"
	 viewBox="0 0 250 520" enable-background="new 0 0 250 520" xml:space="preserve">
<path fill="#FFCB39" d="M182.1,478.9c4.4-30.9-10.7-60.7-7.3-91.6c2.7-24.6,19.4-43.3,35.1-61.2c10.3-11.7,24.4-21.8,28.1-37.6
	c1.7-7.1,1.9-17.4-1-24.3c-1.6-3.9-5.4-9.6-11.7-16.4c-22.1-23.9-86.7-56.8-98.3-85.6c-15.3-43.3,47.4-110.8-2.6-147.5
	c-50-34.6-62.7,69.6-71.3,97.8c-12.9,49.9-36.6,97.7-34.3,149.8c0,0-1.3,32.9,0.6,43.6c8.6,47.7-7.6,94.6,8.1,140.7
	c5.7,16.6,3.1,39.3,15.5,52.9c16.2,17.7,46.9,9.3,68,13.3C150.5,520.2,175.2,527,182.1,478.9z"/>
</svg>
